<svg xmlns="http://www.w3.org/2000/svg" xmlns:svgjs="http://svgjs.com/svgjs" xmlns:xlink="http://www.w3.org/1999/xlink" style="enable-background:new 0 0 512 512" width="512" height="512" x="0" y="0" version="1.1" viewBox="0 0 512 512" xml:space="preserve"><g><g xmlns="http://www.w3.org/2000/svg"><path fill="#000" d="m135.05 197.128h30v-25.128h75.95v170.849h-25.996v30h81.992v-30h-25.996v-170.849h75.95v25.128h30v-55.128h-241.9z" data-original="#000000"/><path fill="#000" d="m476.25 401.005v-290.01c20.957-8.645 35.75-29.287 35.75-53.328 0-31.798-25.869-57.667-57.667-57.667-24.041 0-44.683 14.793-53.328 35.75h-290.01c-8.645-20.957-29.287-35.75-53.328-35.75-31.798 0-57.667 25.869-57.667 57.667 0 24.041 14.793 44.684 35.75 53.329v290.009c-20.957 8.645-35.75 29.287-35.75 53.328 0 31.798 25.869 57.667 57.667 57.667 24.041 0 44.683-14.793 53.328-35.75h290.01c8.645 20.957 29.287 35.75 53.328 35.75 31.798 0 57.667-25.869 57.667-57.667 0-24.041-14.793-44.683-35.75-53.328zm-79.005 45.245h-282.49c-3.572-25.34-23.666-45.434-49.005-49.005v-282.49c25.339-3.571 45.433-23.666 49.005-49.005h282.49c3.572 25.34 23.666 45.434 49.005 49.005v282.489c-25.339 3.572-45.433 23.666-49.005 49.006zm57.088-416.25c15.256 0 27.667 12.411 27.667 27.667s-12.411 27.667-27.667 27.667c-15.255 0-27.666-12.411-27.666-27.667s12.411-27.667 27.666-27.667zm-396.666 0c15.255 0 27.666 12.411 27.666 27.667s-12.411 27.667-27.666 27.667c-15.256-.001-27.667-12.412-27.667-27.667 0-15.256 12.411-27.667 27.667-27.667zm0 452c-15.256 0-27.667-12.411-27.667-27.667s12.411-27.667 27.667-27.667c15.255 0 27.666 12.411 27.666 27.667s-12.411 27.667-27.666 27.667zm396.666 0c-15.255 0-27.666-12.411-27.666-27.667s12.411-27.667 27.666-27.667c15.256 0 27.667 12.411 27.667 27.667s-12.411 27.667-27.667 27.667z" data-original="#000000"/></g></g></svg>